    <svg width="206" height="57" viewBox="0 0 206 57" fill="none" xmlns="http://www.w3.org/2000/svg">
        <path d="M73.2727 35H65.0227V11.7273H73.3409C75.6818 11.7273 77.697 12.1932 79.3864 13.125C81.0758 14.0492 82.375 15.3788 83.2841 17.1136C84.2008 18.8485 84.6591 20.9242 84.6591 23.3409C84.6591 25.7652 84.2008 27.8485 83.2841 29.5909C82.375 31.3333 81.0682 32.6705 79.3636 33.6023C77.6667 34.5341 75.6364 35 73.2727 35ZM69.9432 30.7841H73.0682C74.5227 30.7841 75.7462 30.5265 76.7386 30.0114C77.7386 29.4886 78.4886 28.6818 78.9886 27.5909C79.4962 26.4924 79.75 25.0758 79.75 23.3409C79.75 21.6212 79.4962 20.2159 78.9886 19.125C78.4886 18.0341 77.7424 17.2311 76.75 16.7159C75.7576 16.2008 74.5341 15.9432 73.0795 15.9432H69.9432V30.7841ZM96.0994 35.3409C94.3343 35.3409 92.8078 34.9659 91.5199 34.2159C90.2396 33.4583 89.2509 32.4053 88.554 31.0568C87.857 29.7008 87.5085 28.1288 87.5085 26.3409C87.5085 24.5379 87.857 22.9621 88.554 21.6136C89.2509 20.2576 90.2396 19.2045 91.5199 18.4545C92.8078 17.697 94.3343 17.3182 96.0994 17.3182C97.8646 17.3182 99.3873 17.697 100.668 18.4545C101.955 19.2045 102.948 20.2576 103.645 21.6136C104.342 22.9621 104.69 24.5379 104.69 26.3409C104.69 28.1288 104.342 29.7008 103.645 31.0568C102.948 32.4053 101.955 33.4583 100.668 34.2159C99.3873 34.9659 97.8646 35.3409 96.0994 35.3409ZM96.1222 31.5909C96.9252 31.5909 97.5956 31.3636 98.1335 30.9091C98.6714 30.447 99.0767 29.8182 99.3494 29.0227C99.6297 28.2273 99.7699 27.322 99.7699 26.3068C99.7699 25.2917 99.6297 24.3864 99.3494 23.5909C99.0767 22.7955 98.6714 22.1667 98.1335 21.7045C97.5956 21.2424 96.9252 21.0114 96.1222 21.0114C95.3116 21.0114 94.6297 21.2424 94.0767 21.7045C93.5313 22.1667 93.1184 22.7955 92.8381 23.5909C92.5653 24.3864 92.429 25.2917 92.429 26.3068C92.429 27.322 92.5653 28.2273 92.8381 29.0227C93.1184 29.8182 93.5313 30.447 94.0767 30.9091C94.6297 31.3636 95.3116 31.5909 96.1222 31.5909ZM115.724 35.3409C113.937 35.3409 112.399 34.9621 111.111 34.2045C109.83 33.4394 108.846 32.3788 108.156 31.0227C107.474 29.6667 107.134 28.1061 107.134 26.3409C107.134 24.553 107.478 22.9848 108.168 21.6364C108.865 20.2803 109.853 19.2235 111.134 18.4659C112.414 17.7008 113.937 17.3182 115.702 17.3182C117.224 17.3182 118.558 17.5947 119.702 18.1477C120.846 18.7008 121.751 19.4773 122.418 20.4773C123.084 21.4773 123.452 22.6515 123.52 24H118.952C118.823 23.1288 118.482 22.428 117.929 21.8977C117.384 21.3598 116.668 21.0909 115.781 21.0909C115.031 21.0909 114.376 21.2955 113.815 21.7045C113.262 22.1061 112.83 22.6932 112.52 23.4659C112.209 24.2386 112.054 25.1742 112.054 26.2727C112.054 27.3864 112.205 28.3333 112.509 29.1136C112.819 29.8939 113.255 30.4886 113.815 30.8977C114.376 31.3068 115.031 31.5114 115.781 31.5114C116.334 31.5114 116.83 31.3977 117.27 31.1705C117.717 30.9432 118.084 30.6136 118.372 30.1818C118.668 29.7424 118.861 29.2159 118.952 28.6023H123.52C123.444 29.9356 123.08 31.1098 122.429 32.125C121.785 33.1326 120.895 33.9205 119.759 34.4886C118.622 35.0568 117.277 35.3409 115.724 35.3409ZM142.142 19.25C141.983 18.697 141.759 18.2083 141.472 17.7841C141.184 17.3523 140.831 16.9886 140.415 16.6932C140.006 16.3902 139.536 16.1591 139.006 16C138.483 15.8409 137.903 15.7614 137.267 15.7614C136.078 15.7614 135.032 16.0568 134.131 16.6477C133.237 17.2386 132.54 18.0985 132.04 19.2273C131.54 20.3485 131.29 21.7197 131.29 23.3409C131.29 24.9621 131.536 26.3409 132.028 27.4773C132.521 28.6136 133.218 29.4811 134.119 30.0795C135.021 30.6705 136.085 30.9659 137.312 30.9659C138.426 30.9659 139.377 30.7689 140.165 30.375C140.96 29.9735 141.566 29.4091 141.983 28.6818C142.407 27.9545 142.619 27.0947 142.619 26.1023L143.619 26.25H137.619V22.5455H147.358V25.4773C147.358 27.5227 146.926 29.2803 146.062 30.75C145.199 32.2121 144.009 33.3409 142.494 34.1364C140.979 34.9242 139.244 35.3182 137.29 35.3182C135.108 35.3182 133.191 34.8371 131.54 33.875C129.888 32.9053 128.6 31.5303 127.676 29.75C126.759 27.9621 126.301 25.8409 126.301 23.3864C126.301 21.5 126.574 19.8182 127.119 18.3409C127.672 16.8561 128.445 15.5985 129.438 14.5682C130.43 13.5379 131.585 12.7538 132.903 12.2159C134.222 11.678 135.65 11.4091 137.188 11.4091C138.506 11.4091 139.733 11.6023 140.869 11.9886C142.006 12.3674 143.013 12.9053 143.892 13.6023C144.778 14.2992 145.502 15.1288 146.062 16.0909C146.623 17.0455 146.983 18.0985 147.142 19.25H142.142ZM158.918 35.3409C157.122 35.3409 155.577 34.9773 154.281 34.25C152.993 33.5152 152.001 32.4773 151.304 31.1364C150.607 29.7879 150.259 28.1932 150.259 26.3523C150.259 24.5568 150.607 22.9811 151.304 21.625C152.001 20.2689 152.982 19.2121 154.247 18.4545C155.52 17.697 157.012 17.3182 158.724 17.3182C159.876 17.3182 160.948 17.5038 161.94 17.875C162.94 18.2386 163.812 18.7879 164.554 19.5227C165.304 20.2576 165.887 21.1818 166.304 22.2955C166.721 23.4015 166.929 24.697 166.929 26.1818V27.5114H152.19V24.5114H162.372C162.372 23.8144 162.221 23.197 161.918 22.6591C161.615 22.1212 161.194 21.7008 160.656 21.3977C160.126 21.0871 159.509 20.9318 158.804 20.9318C158.069 20.9318 157.418 21.1023 156.849 21.4432C156.289 21.7765 155.849 22.2273 155.531 22.7955C155.213 23.3561 155.05 23.9811 155.043 24.6705V27.5227C155.043 28.3864 155.202 29.1326 155.52 29.7614C155.846 30.3902 156.304 30.875 156.895 31.2159C157.486 31.5568 158.187 31.7273 158.997 31.7273C159.535 31.7273 160.027 31.6515 160.474 31.5C160.921 31.3485 161.304 31.1212 161.622 30.8182C161.94 30.5152 162.183 30.1439 162.349 29.7045L166.827 30C166.599 31.0758 166.134 32.0152 165.429 32.8182C164.732 33.6136 163.83 34.2348 162.724 34.6818C161.626 35.1212 160.357 35.3409 158.918 35.3409ZM174.929 24.9091V35H170.088V17.5455H174.702V20.625H174.906C175.293 19.6098 175.94 18.8068 176.849 18.2159C177.759 17.6174 178.861 17.3182 180.156 17.3182C181.368 17.3182 182.425 17.5833 183.327 18.1136C184.228 18.6439 184.929 19.4015 185.429 20.3864C185.929 21.3636 186.179 22.5303 186.179 23.8864V35H181.338V24.75C181.346 23.6818 181.073 22.8485 180.52 22.25C179.967 21.6439 179.205 21.3409 178.236 21.3409C177.584 21.3409 177.009 21.4811 176.509 21.7614C176.016 22.0417 175.63 22.4508 175.349 22.9886C175.077 23.5189 174.937 24.1591 174.929 24.9091Z" fill="#001A49"/>
        <path d="M40.1168 47.3786L2.24347 22.6286C-1.59453 20.1206 -0.289863 14.8986 4.49603 13.6706L44.7486 3.32056C45.6013 3.02908 46.515 2.93446 47.4141 3.04456C48.313 3.15466 49.1714 3.4663 49.9179 3.95362C50.6641 4.44094 51.2772 5.08988 51.7058 5.84658C52.1343 6.60328 52.3663 7.44592 52.3824 8.30456L49.9968 43.4026C49.7139 47.5686 43.9548 49.8866 40.1168 47.3786Z" fill="#E9327C"/>
        <path d="M28.1046 53.4886L5.79221 12.1507C5.28216 11.205 5.05773 10.1442 5.14363 9.08536C5.22953 8.0265 5.62245 7.01068 6.27903 6.14994C6.93563 5.2892 7.83038 4.61696 8.86463 4.20736C9.89889 3.79776 11.0324 3.66672 12.1403 3.8287L53.4907 9.87468C54.4426 10.0139 55.3461 10.3652 56.127 10.8997C56.9077 11.4342 57.5434 12.1367 57.9819 12.9493C58.4201 13.7619 58.6488 14.6615 58.6486 15.5741C58.6484 16.4867 58.4195 17.3862 57.981 18.1987L38.9325 53.4906C38.421 54.4336 37.6449 55.2248 36.6896 55.777C35.7344 56.3294 34.637 56.6214 33.5179 56.6212C32.3988 56.621 31.3014 56.3286 30.3464 55.776C29.3913 55.2232 28.6157 54.4318 28.1046 53.4886Z" fill="#1DACE3"/>
        <path d="M52.281 9.69663L31.6681 6.68262L6.36014 13.1926L16.4618 31.9146L40.1168 47.3786C40.6387 47.716 41.2127 47.9744 41.8184 48.1446L50.8033 31.4986L52.281 9.69663Z" fill="#001A49"/>
    </svg>
